# xmcd
#
# Track frame offsets: 
#        150
#        15753
#        32050
#        53465
#        70244
#        92703
#        109541
#        133719
#        152416
#        166880
#        203348
#        226389
#        250295
#
# Disc length: 3655 seconds
#
# Revision: 0
# Processed by: cddbd v1.5.2PL0 Copyright (c) Steve Scherf et al.
# Submitted via: ExactAudioCopy v0.99pb5
#
DISCID=900e450d
DTITLE=Monkey Business - Dancing Blues
DYEAR=1900
DGENRE=Blues
TTITLE0=Warsaw Blues
TTITLE1=Monkey Business czyli Dancing Blues
TTITLE2=Bo dom to Ty i Ja
TTITLE3=Wszystko wokó³ mnie
TTITLE4=Mówisz mi
TTITLE5=Stojê tu i nie wiem
TTITLE6=Bluesanka
TTITLE7=S.E.X.
TTITLE8=Mam fart
TTITLE9=Czasem jest piêkna tak
TTITLE10=To tylko ten Blues
TTITLE11=Daily Blues
TTITLE12=Gdybym wtedy wiedzia³
EXTD=
EXTT0=
EXTT1=
EXTT2=
EXTT3=
EXTT4=
EXTT5=
EXTT6=
EXTT7=
EXTT8=
EXTT9=
EXTT10=
EXTT11=
EXTT12=
PLAYORDER=
